{
  "accessors": [
    {
      "bufferView": 2,
      "componentType": 5126,
      "count": 2409,
      "max": [
        0.2891693115234375,
        0.0664488673210144,
        0.2891693115234375
      ],
      "min": [
        -0.2891693115234375,
        -0.023939652368426323,
        -0.2891693115234375
      ],
      "type": "VEC3"
    },
    {
      "bufferView": 2,
      "byteOffset": 28908,
      "componentType": 5126,
      "count": 2409,
      "max": [
        1.0,
        1.0,
        1.0
      ],
      "min": [
        -1.0,
        -1.0,
        -1.0
      ],
      "type": "VEC3"
    },
    {
      "bufferView": 3,
      "componentType": 5126,
      "count": 2409,
      "max": [
        0.9992209672927856,
        1.0,
        1.0,
        1.0
      ],
      "min": [
        -0.9975770115852356,
        -1.0,
        -0.9990751147270203,
        1.0
      ],
      "type": "VEC4"
    },
    {
      "bufferView": 1,
      "componentType": 5126,
      "count": 2409,
      "max": [
        0.9939203262329102,
        0.9909604787826538
      ],
      "min": [
        0.00022024234931450337,
        0.00022024234931450337
      ],
      "type": "VEC2"
    },
    {
      "bufferView": 1,
      "byteOffset": 19272,
      "componentType": 5126,
      "count": 2409,
      "max": [
        0.9939203262329102,
        0.9909604787826538
      ],
      "min": [
        0.00022024234931450337,
        0.00022024234931450337
      ],
      "type": "VEC2"
    },
    {
      "bufferView": 1,
      "byteOffset": 38544,
      "componentType": 5126,
      "count": 2409,
      "max": [
        0.9939203262329102,
        0.9909604787826538
      ],
      "min": [
        0.00022024234931450337,
        0.00022024234931450337
      ],
      "type": "VEC2"
    },
    {
      "bufferView": 0,
      "componentType": 5125,
      "count": 11208,
      "type": "SCALAR"
    }
  ],
  "asset": {
    "extras": {
      "author": "Snowforge (https://sketchfab.com/Snowforge)",
      "license": "CC-BY-4.0 (http://creativecommons.org/licenses/by/4.0/)",
      "source": "https://sketchfab.com/3d-models/steering-wheel-0b77970f7f984ce8ac5c0a03ed1fa1a8",
      "title": "steering wheel"
    },
    "generator": "Sketchfab-12.68.0",
    "version": "2.0"
  },
  "bufferViews": [
    {
      "buffer": 0,
      "byteLength": 44832,
      "name": "floatBufferViews",
      "target": 34963
    },
    {
      "buffer": 0,
      "byteLength": 57816,
      "byteOffset": 44832,
      "byteStride": 8,
      "name": "floatBufferViews",
      "target": 34962
    },
    {
      "buffer": 0,
      "byteLength": 57816,
      "byteOffset": 102648,
      "byteStride": 12,
      "name": "floatBufferViews",
      "target": 34962
    },
    {
      "buffer": 0,
      "byteLength": 38544,
      "byteOffset": 160464,
      "byteStride": 16,
      "name": "floatBufferViews",
      "target": 34962
    }
  ],
  "buffers": [
    {
      "byteLength": 199008,
      "uri": "scene.bin"
    }
  ],
  "images": [
    {
      "uri": "textures/SteeringWheel_baseColor.png"
    },
    {
      "uri": "textures/SteeringWheel_metallicRoughness.png"
    },
    {
      "uri": "textures/SteeringWheel_normal.png"
    }
  ],
  "materials": [
    {
      "doubleSided": true,
      "name": "SteeringWheel",
      "normalTexture": {
        "index": 2
      },
      "pbrMetallicRoughness": {
        "baseColorTexture": {
          "index": 0
        },
        "metallicFactor": 0.5,
        "metallicRoughnessTexture": {
          "index": 1
        }
      }
    }
  ],
  "meshes": [
    {
      "name": "SteeringWheel_SteeringWheel_0",
      "primitives": [
        {
          "attributes": {
            "NORMAL": 1,
            "POSITION": 0,
            "TANGENT": 2,
            "TEXCOORD_0": 3,
            "TEXCOORD_1": 4,
            "TEXCOORD_2": 5
          },
          "indices": 6,
          "material": 0,
          "mode": 4
        }
      ]
    }
  ],
  "nodes": [
    {
      "children": [
        1
      ],
      "matrix": [
        1.0,
        0.0,
        0.0,
        0.0,
        0.0,
        2.220446049250313e-16,
        -1.0,
        0.0,
        0.0,
        1.0,
        2.220446049250313e-16,
        0.0,
        0.0,
        0.0,
        0.0,
        1.0
      ],
      "name": "Sketchfab_model"
    },
    {
      "children": [
        2
      ],
      "matrix": [
        0.009999999776482582,
        0.0,
        0.0,
        0.0,
        0.0,
        0.0,
        0.009999999776482582,
        0.0,
        0.0,
        -0.009999999776482582,
        0.0,
        0.0,
        0.0,
        0.0,
        0.0,
        1.0
      ],
      "name": "1bd2fdb0a4d2445f8f10afdf5aa7d57e.fbx"
    },
    {
      "children": [
        3
      ],
      "name": "RootNode"
    },
    {
      "children": [
        4
      ],
      "matrix": [
        100.0,
        0.0,
        0.0,
        0.0,
        0.0,
        -1.629206793918314e-05,
        -99.99999999999868,
        0.0,
        0.0,
        99.99999999999868,
        -1.629206793918314e-05,
        0.0,
        0.0,
        0.0,
        0.0,
        1.0
      ],
      "name": "SteeringWheel"
    },
    {
      "mesh": 0,
      "name": "SteeringWheel_SteeringWheel_0"
    }
  ],
  "samplers": [
    {
      "magFilter": 9729,
      "minFilter": 9987,
      "wrapS": 10497,
      "wrapT": 10497
    }
  ],
  "scene": 0,
  "scenes": [
    {
      "name": "Sketchfab_Scene",
      "nodes": [
        0
      ]
    }
  ],
  "textures": [
    {
      "sampler": 0,
      "source": 0
    },
    {
      "sampler": 0,
      "source": 1
    },
    {
      "sampler": 0,
      "source": 2
    }
  ]
}
